<mxfile host="app.diagrams.net" modified="2024-06-09T15:25:28.685Z" agent="Mozilla/5.0 (Windows NT 10.0; Win64; x64) AppleWebKit/537.36 (KHTML, like Gecko) Chrome/125.0.0.0 Safari/537.36" etag="7PpwvHY4fL4GduCssOts" version="24.5.2" type="device">
  <diagram name="Страница — 1" id="XFLXqsShJnSAfF4sKAPb">
    <mxGraphModel dx="666" dy="487" grid="1" gridSize="10" guides="1" tooltips="1" connect="1" arrows="1" fold="1" page="1" pageScale="1" pageWidth="827" pageHeight="1169" background="#ffffff" math="0" shadow="0">
      <root>
        <mxCell id="0" />
        <mxCell id="1" parent="0" />
      </root>
    </mxGraphModel>
  </diagram>
</mxfile>
